<svg viewBox="0 0 400 300" fill="none" xmlns="http://www.w3.org/2000/svg"><mask id="a" style="mask-type:alpha" maskUnits="userSpaceOnUse" x="36" y="32" width="329" height="237"><path d="M364.5 32H36v237h328.5V32Z" fill="#fff" /></mask><g mask="url(#a)"><g opacity=".4"><path fill-rule="evenodd" clip-rule="evenodd" d="M194.196 77.903c2.3.6 4.5 1.2 6.8 1.8 2.3.6 4.6 1.3 6.9 2 4.8 1.4 9.5 3.1 14 5.1 1.2.5 2.4 1.1 3.6 1.8.6.3 1.2.7 1.8 1.1.6.4 1.1.8 1.7 1.3 2 1.7 3.7 3.6 5.1 5.7 2.7 4 4.2 8.1 5.8 12 1.6 3.9 3 7.7 4.8 11.4 1.7 3.6 4 7 6.6 10.2 2.6 3.1 5.8 5.8 9.4 7.9 3.7 2.1 7.6 3.7 11.6 4.4 1.9.3 3.9.4 5.8.2 1.7-.2 3.4-.6 5-1.3 2.8-1.3 4.8-3.5 5.6-6.1.4-1.3.6-2.7.5-4-.1-1.4-.3-2.9-.8-4.2-.1-.4-.3-.7-.4-1.1l-.5-1.3c-.4-.8-.7-1.7-1.1-2.5-.8-1.6-1.7-3.2-2.7-4.8-2-3.2-4.5-6.3-7.1-9.8-2.9-3.7-5.4-7.5-7.6-11.5-2.2-4.2-3.9-8.5-5.1-12.9-.2-.5-.3-1.1-.4-1.6l-.4-1.5c-.2-.8-.4-1.6-.7-2.5-.5-1.7-1.1-3.3-1.8-4.9-2.8-6.4-7.1-12-12.9-16.2-3-2.2-6.2-4-9.8-5.4-1.8-.8-3.7-1.5-5.7-2-2-.6-4.1-1.1-6.1-1.6-2.1-.4-4.3-.8-6.5-1.1-1-.1-2.4-.3-3.6-.4-1.3-.1-2.5-.3-3.7-.5-4.9-.8-9.7-1.8-14.5-3.2-4.7-1.3-9.2-2.8-13.6-4.4-2.2-.8-4.4-1.6-6.6-2.3-2.1-.7-4.3-1.2-6.6-1.4-4.7-.3-9.3.3-13.8 1.5-4.4 1.3-8.4 3.5-11 6.5-.7.7-1.2 1.5-1.7 2.3-.5.8-.8 1.6-1.1 2.5-.6 1.7-.7 3.4-.6 5.1.4 3.4 2.1 6.6 4.4 9.5.1.2.3.4.4.5l.4.4c.3.3.6.5.9.8.6.5 1.3 1 2 1.5 1.5 1 3.2 1.8 4.9 2.5 3.8 1.6 7.8 2.9 11.9 4 8.4 2.3 17.4 4.3 26.5 6.5ZM210.2 95c2.2.4 4.3.9 6.3 1.4 1 .3 1.9.6 2.8.9.4.2.8.3 1.2.5.4.1.8.3 1.2.5 1.6.9 3.1 2 4.4 3.2 2.7 2.7 5 6.1 7 9.7 4.1 7.1 7.5 15 13 22.1 1.4 1.8 2.9 3.5 4.5 5.1 1.7 1.6 3.5 3.2 5.4 4.6 3.9 3 8.4 5.4 13.3 7.1 2.7.9 5.5 1.4 8.3 1.6 3.1.2 6.2-.1 9.1-.9 3.2-.8 6-2.2 8.5-4 2.5-1.9 4.5-4.2 6-6.7s2.4-5.2 2.7-7.9c.3-2.7.2-5.3-.3-7.9-.1-.7-.2-1.3-.4-1.9l-.5-1.7c-.3-1.1-.7-2.2-1.1-3.3-.9-2.2-1.8-4.3-2.9-6.4-2.1-4.1-4.6-7.9-6.8-11.3-2.1-3.2-3.9-6.6-5.5-10-1.5-3.3-2.6-6.7-3.4-10.2l-.6-2.8c-.2-1.2-.5-2.4-.9-3.5-.7-2.3-1.6-4.5-2.6-6.7-2-4.5-4.7-8.6-8.1-12.4-3.4-3.9-7.5-7.2-12.2-10-4.6-2.7-9.7-4.7-15.2-5.9-5.2-1.2-10.6-1.7-16-1.5-2.6.1-5.2.3-7.8.6-1.3.2-2.4.4-3.5.5-1.1.1-2.3.2-3.4.3-4.6.4-9.2.4-13.8 0-2.3-.2-4.6-.5-6.9-.9-2.3-.4-4.7-.8-6.9-1.4-2.2-.6-4.5-1.2-6.8-1.8-1.2-.3-2.3-.6-3.5-.8-1.2-.3-2.4-.4-3.7-.5-4.9-.2-9.8.2-15.2 1.4-5 1-9.6 3-13.5 5.9-1 .8-1.9 1.6-2.7 2.5-.8.9-1.6 1.9-2.2 2.9-1.3 2.2-2.2 4.4-2.6 6.8-.4 2.3-.4 4.7 0 7.1.4 2.3 1 4.6 2 6.8.2.3.3.5.4.8l.5.9c.4.6.7 1.1 1.1 1.7.8 1.1 1.6 2.1 2.6 3.1.9 1 1.9 1.9 3 2.7 1.1.8 2.1 1.6 3.2 2.3 4.3 2.7 8.8 4.9 13.7 6.7 9.4 3.4 18.9 5.5 28.2 7.2 2.4.4 4.7.8 7 1.2l6.9 1.1c2.3.4 4.5.8 6.7 1.2Z" fill="#EBEBEB" opacity=".4" /><path fill-rule="evenodd" clip-rule="evenodd" d="M156.302 100.995c-1.3.7-2.6 1.3-3.9 2l-3.8 2c-5 2.8-9.8 5.6-14.6 8.1-2.4 1.3-4.8 2.5-7.2 3.5-2.3 1-4.7 1.8-7.1 2.5-2.3.5-4.7 1-7.1 1.2-2.5.3-5 .5-7.6.5h-8.1l-8.4-.2c-6-.2-12 0-18 .6-3.3.3-6.5.9-9.7 1.7-3.3.9-6.6 2.1-9.6 3.6-3.1 1.5-5.9 3.5-8.4 5.7-.6.6-1.3 1.2-1.8 1.8-.5.6-1.1 1.3-1.6 2s-1.1 1.5-1.4 2.2c-.3.7-.7 1.5-1 2.3-1 3-1.3 6.1-.7 9.1.5 2.6 1.4 5.2 2.6 7.6 1.2 2.3 2.5 4.5 3.9 6.6 1.3 2.1 2.8 4.2 4.2 6.2 2.9 4.1 5.6 8.1 8 12.3 2.4 4.1 4.2 8.5 5.3 13.1l2.7 14.2.8 3.5c.3 1.2.5 2.3.8 3.5.3 1.2.6 2.3.9 3.5.3 1.2.6 2.3.9 3.5 1.2 4.7 2.8 9.4 4.7 14 1 2.3 2.2 4.7 3.5 6.9 1.4 2.3 3 4.5 4.8 6.6.9 1.1 2 2.1 3 3.1.5.4 1.1.9 1.7 1.4.3.2.6.5.9.7l1 .7c2.7 1.9 5.6 3.4 8.8 4.5.8.3 1.7.6 2.5.8.9.2 1.7.4 2.6.6.4.1.9.2 1.3.3l1.3.2 2.7.3 2.7.1h1.3l3.9-.2c.9-.1 1.7-.2 2.6-.3 1.7-.2 3.3-.5 5-.9l1.2-.3 1.2-.3 2.4-.7c.8-.2 1.5-.5 2.3-.7.8-.3 1.5-.5 2.3-.8 1.6-.6 3.1-1.1 4.6-1.8 3.2-1.3 6.3-2.9 9.1-4.8 3-2 5.6-4.3 7.9-6.8 2.2-2.4 4-4.9 5.6-7.6 1.5-2.5 2.7-5 3.8-7.3 2.2-4.7 4.2-9.2 6.2-13.6 4-8.8 8.7-17.4 13.9-25.7l1-1.6 1-1.6c.7-1 1.4-2.1 2.1-3.1l4.3-6.3c.8-1.1 1.5-2.3 2.2-3.4.7-1.1 1.4-2.3 2.1-3.4.7-1.2 1.4-2.3 2-3.5.6-1.2 1.2-2.3 1.8-3.5 1.2-2.4 2.2-4.8 3.2-7.2l.7-1.8.7-1.8c.5-1.2.8-2.5 1.2-3.7.7-2.5 1.4-5.1 1.8-7.6.5-2.6.8-5.1.9-7.7.4-5.1-.2-10.2-1.7-15.2-.4-1.2-.8-2.4-1.3-3.6l-.8-1.8c-.3-.6-.6-1.1-.9-1.7-1.2-2.3-2.7-4.5-4.5-6.5-1.8-2-3.8-3.8-6-5.5-.6-.4-1.1-.8-1.7-1.2l-1.8-1.2c-1.3-.7-2.7-1.4-4.1-1.9-3-1.1-6.2-1.5-9.5-1.4-3.2.2-6.3.8-9.3 1.8-2.9.9-5.6 2.1-8.3 3.4Zm3.401 4.503c-2.3 1.4-4.5 2.8-6.7 4.4-4.4 3.1-8.6 6.5-13.2 9.8-2.3 1.7-4.7 3.3-7.2 4.9-2.6 1.7-5.4 3.1-8.3 4.4-6.2 2.6-12.6 3.8-18.8 4.5-12.3 1.3-23.7.5-33.9 1.2-5.1.3-9.7 1-13.8 2.5-2.1.7-4 1.7-5.8 2.8-1.6 1-3 2.2-4 3.7-1 1.6-1.6 3.3-1.8 5.1-.2 2.1 0 4.2.5 6.3.5 2.2 1.1 4.4 1.9 6.6.8 2.2 1.7 4.4 2.7 6.6 1.9 4.4 4.1 8.8 6.1 13.2 1.9 4.4 3.5 8.9 4.7 13.6 1 4.601 2.2 9.201 3.8 13.701l.6 1.7.6 1.7c.4 1.1.9 2.2 1.3 3.3.9 2.2 1.9 4.4 2.9 6.5 2.1 4.2 4.6 8.3 7.6 12.1 1.4 1.9 3 3.6 4.7 5.3 1.6 1.6 3.4 3.1 5.3 4.5.9.7 1.9 1.2 2.8 1.8l1.5.8c.2.1.5.3.7.4l.8.3c1.9.9 3.9 1.5 6.1 1.8.5.1 1 .2 1.5.2l1.6.1c.3 0 .5.1.8.1H107.103l1.6-.1c.3 0 .5 0 .8-.1l.8-.1 1.6-.2 1.7-.4c2.3-.5 4.5-1.2 6.7-2 .6-.2 1.2-.4 1.7-.6.6-.2 1.2-.4 1.7-.7 1.1-.5 2.2-.9 3.2-1.4 2-.9 3.8-2 5.5-3.2 1.6-1.1 3-2.4 4.2-3.8 2.5-2.8 4.5-6.7 6.7-11 1.1-2.2 2.1-4.4 3.2-6.7s2.3-4.6 3.4-6.9c4.8-9.3 10.3-18.201 16.6-26.901l1.2-1.6 1.2-1.6c.8-1.1 1.6-2.1 2.4-3.2l4.8-6.1c1.5-2 3-3.9 4.5-5.9l2.1-3c.7-1 1.4-2 2-3 1.3-2 2.6-4.1 3.8-6.2l.9-1.6.8-1.6c.6-1 1.1-2.1 1.6-3.2 2-4.2 3.6-8.6 4.6-13 .5-2.2.8-4.4.9-6.6.1-2.2 0-4.4-.3-6.6-.6-4.3-2.4-8.5-5.2-12.2-1.4-1.8-3-3.5-4.9-5-.5-.4-.9-.8-1.4-1.1l-1.4-1c-1-.6-2-1.1-3.1-1.5-2.2-.8-4.6-1.2-7-1-2.5.2-5 .8-7.3 1.7-2.5 1-4.8 2.1-7 3.5ZM221.302 173l-.7 1.8-1.4 3.4c-.8 1.9-1.7 3.8-2.8 5.7-.2.4-.4.8-.7 1.2-.2.2-.3.4-.4.6l-.4.5c-.2.4-.5.7-.8 1.1l-.5.5-.6.6c-2.1 1.9-4.3 3.9-6.3 6-4.2 4.3-7.8 8.8-10.9 13.7-1.5 2.5-2.7 5.1-3.4 7.8-.6 2.7-.6 5.5.2 8.1.8 2.6 2.1 5.1 3.7 7.3s3.6 4.3 5.7 6.3c2.2 2 4.6 3.9 7.1 5.6 2.6 1.7 5.3 3.2 8.2 4.6.7.4 1.5.7 2.2 1 .7.3 1.4.6 2.2.9.8.3 1.5.6 2.3.8.7.2 1.5.5 2.3.7 3.2.9 6.5 1.5 9.8 1.8 3.4.3 6.8.3 10.2 0 3.5-.3 7-1 10.3-2.1.8-.2 1.7-.6 2.5-.9l1.2-.5.6-.3.6-.3 1.2-.6 1.2-.6c.8-.5 1.6-.9 2.3-1.5.7-.6 1.5-1.1 2.1-1.7.6-.6 1.3-1.2 1.9-1.8 1.1-1.2 2.2-2.5 3.1-3.9l.7-1c.1-.4.3-.7.5-1.1 1.1-2.2 1.7-4.5 1.9-6.9.1-2.9-.3-5.8-1.2-8.6-1.7-5.3-4.2-10-5.9-14.8-.5-1.2-.9-2.4-1.2-3.6-.1-.6-.3-1.2-.4-1.8l-.3-1.8c-.1-.6-.2-1.1-.2-1.7V195l.1-.8.2-1.8c.7-5.1 1.4-10.4 1.4-15.8-.1-1.3-.1-2.7-.2-4.1 0-.7-.1-1.4-.2-2.1-.2-.8-.3-1.5-.4-2.2-.3-1.5-.7-3-1.2-4.5-.6-1.7-1.4-3.4-2.3-5.3l-.5-.7c-.2-.2-.4-.5-.6-.7l-.6-.7c-.2-.2-.4-.5-.7-.7-.3-.3-.5-.4-.8-.7-.3-.3-.6-.5-.9-.7l-.5-.3c-.1-.1-.3-.2-.5-.3-.4-.2-.7-.4-1.1-.6-.8-.4-1.6-.7-2.4-1-.4-.1-.9-.2-1.3-.3l-.7-.1c-.2 0-.4-.1-.6-.1-.9-.1-1.7-.2-2.6-.2h-2c-1 0-2.1.1-3.1.3l-1.6.3-1.6.4c-1.1.3-2.1.6-3.2 1-.5.2-1.1.5-1.6.7l-.8.3-.8.4c-2 1-3.9 2.2-5.5 3.7-1.4 1.4-2.8 2.8-3.9 4.4-1 1.4-1.9 2.8-2.7 4.3-.7 1.4-1.4 2.7-1.9 4l-.8 1.9ZM114.904 93.995c.3-.2.6-.5.9-.7l.8-.8c1-1.1 1.7-2.4 1.9-3.8.1-1 .1-2-.1-3-.2-.8-.5-1.7-.8-2.5-1.3-3.1-3-5.5-4.5-8s-2.8-5.2-4.3-7.9-3-5.4-5.2-7.7c-2.1-2.3-4.8-4.2-7.8-5.6-3.2-1.4-6.7-2.2-10.3-2.4-3.8-.1-7.6.1-11.3.7-1.8.3-3.6.7-5.3 1.3-.8.3-1.6.7-2.4 1.1-.7.5-1.4 1-2 1.5-1.2 1.1-2.3 2.2-3.3 3.3-1.1 1.3-2 2.7-2.7 4.2-.8 1.7-1.3 3.4-1.4 5.2-.1 1.8 0 3.7.4 5.5.7 3.4 2.4 6.6 4.9 9.3 2.3 2.4 5 4.6 8 6.4 2.9 1.8 6 3.2 9.3 4.3 3.3 1.1 6.7 2 10.1 2.6 3.4.7 7 1.2 10.8 1.1 2.1 0 4-.2 6-.6.5-.1 1-.2 1.6-.4l.8-.2.8-.4c.5-.2 1.2-.4 1.7-.6.6-.2 1.1-.5 1.7-.8.6-.4 1.1-.7 1.7-1.1Z" fill="#EBEBEB" opacity=".4" /></g><path fill-rule="evenodd" clip-rule="evenodd" d="M348.6 255.2c0-7-5.7-12.7-12.7-12.7-7 0-12.7 5.7-12.7 12.7 0 7 5.7 12.7 12.7 12.7 7 0 12.7-5.7 12.7-12.7Zm-22.4.1c0 5.4 4.3 9.7 9.7 9.7 5.4 0 9.7-4.3 9.7-9.7 0-5.4-4.4-9.7-9.7-9.7-5.3 0-9.7 4.3-9.7 9.7Z" fill="#03D5B7" /><path fill-rule="evenodd" clip-rule="evenodd" d="m138.297 163.797 12.5-4.2c.5-.2.8-.8.6-1.3-.2-.5-.8-.8-1.3-.6l-12.5 4.2c-.5.2-.8.8-.6 1.3.1.4.5.7.9.7.1 0 .3-.1.4-.1ZM155.402 189.799c1.9-.7 3.5-2.1 4.4-3.9 1.8-3.8.3-8.4-3.5-10.3-1.9-.9-4-1.1-5.9-.4-1.9.7-3.5 2.1-4.4 3.9-1.8 3.8-.3 8.4 3.5 10.3 1.1.5 2.2.8 3.4.8.8 0 1.6-.1 2.5-.4Zm-4.299-12.599c-1.4.5-2.6 1.5-3.3 2.9-1.4 2.8-.2 6.2 2.6 7.6 1.4.7 2.9.8 4.3.3s2.6-1.5 3.3-2.9c1.4-2.8.2-6.2-2.6-7.6-.8-.4-1.7-.6-2.5-.6-.6 0-1.2.1-1.8.3ZM169.004 201.404l7.4-34.3c.1-.6-.3-1.1-.8-1.2-.6-.1-1.1.3-1.2.8l-7.4 34.3c-.1.6.3 1.1.8 1.2h.2c.4 0 .9-.3 1-.8Z" fill="#FFC412" /><path fill-rule="evenodd" clip-rule="evenodd" d="m52.497 200.297 13.3-4.8c.5-.2.8-.8.6-1.3-.2-.5-.8-.8-1.3-.6l-13.3 4.8c-.5.2-.8.8-.6 1.3.1.4.5.7.9.7.1 0 .2 0 .4-.1ZM143.801 197.6l-24.5-4c-.4 0-.8.2-1 .5-.3.3-.2.8 0 1.1l20.4 28.5c.2.2.5.4.8.4.1 0 .2 0 .3-.1.4-.1.7-.4.8-.8l4-24.5c.1-.5-.3-1-.8-1.1Zm-4.901 23 3.5-21.1-21.1-3.5 17.6 24.6Z" fill="#03D5B7" /><path fill-rule="evenodd" clip-rule="evenodd" d="M345.199 118.8c4.6 0 8.4-3.8 8.4-8.4-.1-4.6-3.9-8.4-8.1-8.4h-1.5V40c0-.3-.2-.5-.2-.8 0-.3-.1-.6-.2-.9 0-.1-.2-.4-.2-.6l-.3-.9c-.2-.2-.3-.4-.3-.6-.2-.3-.4-.6-.6-.8-.2-.1-.3-.4-.5-.6l-.6-.6c0-.1-.3-.3-.5-.3 0-.1-.1-.2-.2-.2-.3-.2-.5-.3-.8-.5-.2-.1-.5-.3-.8-.6-.1 0-.4-.2-.6-.2-.3-.1-.7-.1-.9-.3-.3 0-.6-.1-.8-.2h-2.6c-.2.2-.4.2-.6.2-.4.1-.7.1-.9.3-.3 0-.4.2-.6.5-.3 0-.6.1-.9.3-.1.2-.4.3-.6.5-.2.3-.5.4-.8.5-.2.2-.3.4-.5.6-.1.1-.1.3-.3.3l-56.5 70.2-.3.3c-2.7 3.6-2 8.7 1.6 11.4 1.4 1.2 3.3 1.9 5.2 1.8h48.1v11.6c.2 4.5 3.8 8.1 8.2 8.2 4.6.1 8.5-3.6 8.6-8.2v-11.6h1.6Zm-48.8-16.8h30.4V64.4h-.1l-30.3 37.6Z" fill="#FFC412" /><path fill-rule="evenodd" clip-rule="evenodd" d="M131.299 73.299c.4-2.5-1.2-4.9-3.7-5.3-2.5-.4-4.9 1.2-5.3 3.7l-1.6 8.7c-.4 2.5 1.2 4.9 3.7 5.3 2.4.5 4.8-1.2 5.3-3.7l1.6-8.7ZM233.795 75.195c-.4-2.5-2.7-4.2-5.2-3.9-2.5.4-4.2 2.7-3.9 5.2l1.3 8.7c.4 2.5 2.7 4.2 5.2 3.9 2.5-.2 4.2-2.6 3.9-5.1l-1.3-8.8ZM148.195 46.795c1.8-1.7 1.9-4.6.2-6.5-1.7-1.8-4.6-2-6.5-.2l-3.5 3.2c-1.8 1.7-1.9 4.6-.2 6.5 1.8 1.9 4.7 2 6.5.2l3.5-3.2ZM146.395 118.8c-1.7-1.9-4.6-2-6.5-.2-1.8 1.7-1.9 4.6-.2 6.5l3.2 3.5c1.7 1.8 4.6 1.9 6.5.2 1.8-1.8 1.9-4.7.2-6.6l-3.2-3.4ZM220.002 49.602l-5.1 3.5c-.7.5-.9 1.4-.4 2.1l6.3 9c.5.7 1.4.9 2.1.4l5.1-3.5c.7-.5.9-1.4.4-2.1l-6.3-9c-.5-.6-1.4-.8-2.1-.4ZM200.501 136.801c2.4-.9 3.6-3.5 2.7-5.9-.9-2.4-3.5-3.6-5.9-2.7l-4.5 1.6c-2.4.9-3.6 3.5-2.7 5.9.9 2.3 3.5 3.6 5.9 2.7l4.5-1.6Z" fill="#FFC727" /><path fill-rule="evenodd" clip-rule="evenodd" d="M169.054 32.975c-28.729 4.998-47.967 32.34-42.969 61.069 4.998 28.729 32.34 47.967 61.069 42.969 28.728-4.998 47.966-32.34 42.968-61.069-4.998-28.728-32.34-47.967-61.068-42.969Z" fill="#FFC412" /><path opacity=".2" fill-rule="evenodd" clip-rule="evenodd" d="M169.7 60.9c-.8.7-1.7 1.3-2.7 1.8-2.1.9-4.5 1.4-6.8 1.3 2.4 1 5.1 1.2 7.5.4 2.6-.9 4.7-2.6 6-5 1.3-2.2 1.9-4.8 1.8-7.4-.1-2.5-.9-5-2.5-7 .7 2.2 1 4.6.8 6.9-.1 1.1-.4 2.2-.7 3.3-.2.6-.4 1.1-.6 1.6-.3.5-.5 1-.8 1.5-.6 1-1.2 1.8-2 2.6ZM160.495 49.397c.6-1.2 1.7-2.2 2.9-2.9 1.4-.7 2.9-1.1 4.5-1.2-1.6-.8-3.5-1-5.2-.5-1.8.6-3.4 1.8-4.3 3.5-.9 1.6-1.3 3.4-1.2 5.2.1 1.8.8 3.5 2 4.8-.7-3-.3-6.1 1.3-8.9ZM177.7 119.8c-.4 1-1 1.8-1.7 2.6s-1.5 1.3-2.5 1.5c-1.1.2-2.2.3-3.3.1 1 .8 2.2 1.2 3.5 1.2 1.4 0 2.7-.6 3.6-1.6.9-.9 1.5-2.1 1.7-3.4.2-1.2 0-2.5-.7-3.6 0 1.2-.2 2.3-.6 3.2ZM172.895 118.5c.4-.5.9-.8 1.5-1 .7-.2 1.4-.3 2.2-.3-.6-.7-1.5-1.1-2.4-1.1-1 0-1.9.4-2.6 1.1-.7.7-1.1 1.6-1.2 2.5-.1.9.1 1.8.7 2.5.1-1.4.7-2.7 1.8-3.7ZM147.6 105.6c.3.8.4 1.7.2 2.6-.1.8-.6 1.6-1.2 2.2-.8.8-1.7 1.5-2.6 2.1 1.2.2 2.5 0 3.6-.6 1.3-.7 2.2-1.9 2.4-3.3.2-1.4-.1-2.8-.9-3.9-.8-1-1.9-1.7-3.2-1.9.6.9 1.2 1.8 1.7 2.8ZM142.498 108.695c-.1-.5-.1-1.1 0-1.6 0-.5.3-1 .6-1.4.5-.5 1-1.1 1.6-1.6-.8-.3-1.8-.2-2.6.2-.9.4-1.6 1.3-1.8 2.4-.2 1.1.1 2.1.7 2.9.6.8 1.5 1.2 2.4 1.2-.4-.7-.6-1.3-.9-2.1ZM204.9 52.8c-.3.8-.9 1.5-1.6 2.1-.7.6-1.5.9-2.4.9-1.1 0-2.2 0-3.3-.2.8 1 1.9 1.7 3.1 2 1.4.3 2.9 0 4-.9 1.1-.8 1.8-2.1 1.9-3.5.1-1.3-.3-2.6-1.1-3.6-.1 1.1-.3 2.2-.6 3.2ZM199.204 51.795c.2-.39.6-.89 1-1.19.4-.31.9-.5 1.4-.61.8-.09 1.5-.2 2.3-.2-.5-.8-1.2-1.4-2.1-1.6-1.1-.3-2.2-.09-3 .6-.8.61-1.3 1.61-1.4 2.61-.1 1 .3 1.9 1 2.5.1-.7.4-1.4.8-2.11Z" fill="#000" /><path fill-rule="evenodd" clip-rule="evenodd" d="M201.795 81.395c-1.2-6.3-7.3-10.5-13.6-9.3-6.3 1.2-10.5 7.3-9.3 13.6 1.2 6.3 7.3 10.5 13.6 9.3 6.3-1.2 10.5-7.3 9.3-13.6Z" fill="#FFC727" /><path opacity=".1" fill-rule="evenodd" clip-rule="evenodd" d="M201.795 81.395c-1.2-6.3-7.3-10.5-13.6-9.3-6.3 1.2-10.5 7.3-9.3 13.6 1.2 6.3 7.3 10.5 13.6 9.3 6.3-1.2 10.5-7.3 9.3-13.6Z" fill="#000" /><path opacity=".2" fill-rule="evenodd" clip-rule="evenodd" d="M200.903 78.502c-2.8-5.8-9.7-8.3-15.5-5.6-5.8 2.8-8.3 9.7-5.6 15.5 1.5 3.1 4.3 5.5 7.6 6.3-4.7-3.5-5.7-10.2-2.2-14.9 1.6-2 3.9-3.5 6.5-4 3.3-.6 6.7.4 9.2 2.7ZM203.4 92.5c-.7 1.2-1.5 2.3-2.5 3.2-.5.5-1 .9-1.6 1.3-.6.4-1.2.7-1.8 1-2.7 1.1-5.6 1.6-8.5 1.4 2.9 1.1 6.1 1.2 9.1.2 3.1-1.1 5.6-3.2 7.2-6.1 1.6-2.8 2.4-5.9 2.3-9.1-.1-3.1-1.1-6.1-2.9-8.6.9 2.8 1.3 5.7 1.1 8.7-.1 1.4-.4 2.8-.8 4.1-.2.7-.4 1.4-.7 2-.2.7-.6 1.3-.9 1.9Z" fill="#000" /><path fill-rule="evenodd" clip-rule="evenodd" d="M220.198 66.498c-.8-2.3-3.4-3.3-5.7-2.5-2.3.8-3.3 3.4-2.5 5.7 1 2.3 3.5 3.4 5.7 2.5 2.2-.9 3.3-3.4 2.5-5.7Z" fill="#FFC727" /><path opacity=".1" fill-rule="evenodd" clip-rule="evenodd" d="M220.198 66.498c-.8-2.3-3.4-3.3-5.7-2.5-2.3.8-3.3 3.4-2.5 5.7 1 2.3 3.5 3.4 5.7 2.5 2.2-.9 3.3-3.4 2.5-5.7Z" fill="#000" /><path opacity=".2" fill-rule="evenodd" clip-rule="evenodd" d="M219.704 65.505c-1.4-1.9-4.2-2.3-6.1-.9-1.9 1.4-2.3 4.2-.9 6.1.8 1 1.9 1.7 3.2 1.8-2-.9-2.8-3.3-1.9-5.3.4-.9 1.1-1.6 2.1-2 1.2-.5 2.5-.4 3.6.3ZM221.3 70.4c-.3 1-.9 1.8-1.7 2.4-.8.6-1.8 1-2.9 1.2 1.1.2 2.3.1 3.4-.5s1.9-1.6 2.3-2.8c.4-1.1.5-2.3.2-3.5-.3-1.1-.9-2.1-1.8-2.9 1 1.9 1.2 4.1.5 6.1Z" fill="#000" /><path fill-rule="evenodd" clip-rule="evenodd" d="M211.302 104.002c-1.8-2.9-5.6-3.8-8.5-2-2.9 1.8-3.8 5.6-2 8.5 1.8 2.9 5.6 3.8 8.5 2 2.9-1.8 3.8-5.6 2-8.5Z" fill="#FFC727" /><path opacity=".1" fill-rule="evenodd" clip-rule="evenodd" d="M211.302 104.002c-1.8-2.9-5.6-3.8-8.5-2-2.9 1.8-3.8 5.6-2 8.5 1.8 2.9 5.6 3.8 8.5 2 2.9-1.8 3.8-5.6 2-8.5Z" fill="#000" /><path opacity=".2" fill-rule="evenodd" clip-rule="evenodd" d="M210.401 102.801c-2.5-2.4-6.4-2.3-8.7.2-2.4 2.5-2.3 6.4.2 8.7 1.3 1.3 3.1 1.9 4.9 1.7-3-.8-4.7-4-3.9-7 .3-1.3 1.2-2.4 2.4-3.2 1.5-.9 3.4-1.1 5.1-.4ZM213.9 104.8c.4 1.4.5 2.9.3 4.4-.2 1.5-.9 2.9-1.9 3.9-1.1 1.1-2.4 1.9-3.9 2.3 1.6 0 3.2-.6 4.5-1.6 1.3-1.1 2.2-2.7 2.4-4.4.2-1.7 0-3.3-.6-4.9-.6-1.5-1.6-2.8-3-3.7 1 1.1 1.8 2.5 2.2 4Z" fill="#000" /><path fill-rule="evenodd" clip-rule="evenodd" d="M141.898 71.098c-5.4.1-9.6 4.2-9.5 8.9.1 4.7 4.6 8.5 10 8.3 5.4-.1 9.6-4.1 9.5-8.9-.2-4.8-4.6-8.4-10-8.3Z" fill="#FFC727" /><path opacity=".1" fill-rule="evenodd" clip-rule="evenodd" d="M141.898 71.098c-5.4.1-9.6 4.2-9.5 8.9.1 4.7 4.6 8.5 10 8.3 5.4-.1 9.6-4.1 9.5-8.9-.2-4.8-4.6-8.4-10-8.3Z" fill="#000" /><path opacity=".2" fill-rule="evenodd" clip-rule="evenodd" d="M144.598 73.805c2.2-.1 4.4.6 6.1 1.9-1.9-3.1-5.3-4.9-8.9-4.7-5.4.1-9.6 4.1-9.5 8.9.1 4.1 3.4 7.4 7.6 8.2-2.2-1.3-3.7-3.6-3.8-6.2-.1-4.4 3.8-8 8.5-8.1Z" fill="#000" /><path opacity=".2" fill-rule="evenodd" clip-rule="evenodd" d="M154.3 77.7c.3 1 .3 2.1.2 3.1-.1 1-.4 2.1-.8 3-.9 1.8-2.4 3.4-4.2 4.5-2 1.2-4 2.2-6.2 2.9 2.4.1 4.8-.4 7-1.4 1.1-.6 2.2-1.3 3.1-2.1 1-.9 1.7-1.9 2.3-3.1.5-1.1.7-2.4.8-3.7 0-1.3-.2-2.6-.7-3.8-1-2.2-2.8-4.1-5.1-5 1.7 1.5 2.9 3.5 3.6 5.6Z" fill="#000" /><path fill-rule="evenodd" clip-rule="evenodd" d="M107.399 32.6c-.1 0-.4-.2-.6-.2-.3-.1-.7-.1-.9-.3-.3 0-.6-.1-.8-.2h-2.6c-.2.2-.4.2-.6.2-.4.1-.7.1-.9.3-.3 0-.4.2-.6.5-.3 0-.6.1-.9.3-.1.2-.4.3-.6.5-.2.3-.5.4-.8.5-.2.2-.3.4-.5.6-.1.1-.1.3-.3.3l-56.4 70.2-.3.3c-2.7 3.6-2 8.7 1.6 11.4 1.4 1.2 3.3 1.9 5.2 1.8h48.2v11.6c.2 4.5 3.8 8.1 8.2 8.2 4.6.1 8.5-3.6 8.6-8.2v-11.6h1.6c4.6 0 8.4-3.8 8.4-8.4-.1-4.6-3.9-8.4-8.3-8.4h-1.5V40c0-.3-.2-.5-.2-.8 0-.3-.1-.6-.2-.9 0-.1-.2-.4-.2-.6l-.3-.9c-.2-.2-.3-.4-.3-.6-.2-.3-.4-.6-.6-.8-.2-.1-.3-.4-.5-.6l-.6-.6c0-.1-.3-.3-.5-.3 0-.1-.1-.2-.2-.2-.3-.2-.5-.3-.8-.5-.2-.1-.5-.3-.8-.6Zm-42.2 69.4h30.4l-.1-37.6L65.2 102Z" fill="#FFC412" /><path fill-rule="evenodd" clip-rule="evenodd" d="M339.003 241.599c.6-.1.9-.6.8-1.1-11.4-61.2-31-97.9-31.2-98.3-.3-.5-.8-.7-1.3-.4-.5.3-.6.8-.4 1.3.2.4 19.6 36.9 31 97.7.1.5.5.8.9.8h.2Z" fill="#142D6E" /><path fill-rule="evenodd" clip-rule="evenodd" d="M364.5 240.7c0-.5-.4-.9-.9-.9H106.1c-.5 0-.9.4-.9.9s.4.9.9.9h257.5c.5 0 .9-.4.9-.9ZM100.9 240.7c0-.5-.4-.9-.9-.9H47.5c-.5 0-.9.4-.9.9s.4.9.9.9H100c.5 0 .9-.4.9-.9ZM259.3 120.303l-4.7 8.5c-7.5 16.4-24.5 51.2-27.4 53.9-.7.7-4.2 3.4-8.6 6.8-26.3 20.5-42.7 33.9-42.8 37.5 0 .5.2.9.5 1.2.1.1.3.2.4.2 1.6.4 37.8 10.1 47.6 10.1h1.6c7.5-1.3 31.1-33.4 36.1-44.5.2-.5 0-1.1-.5-1.3-.5-.2-1.1 0-1.3.5-5.2 11.5-28.4 42.3-34.7 43.4-5.2 1-33-5.9-47.6-9.8 2-4.6 30.9-27.2 42-35.8 4.8-3.7 8-6.2 8.7-6.9 3.3-3.2 21-39.5 27.8-54.5l4.6-8.4c.2-.5.1-1-.4-1.3-.5-.2-1-.1-1.3.4Z" fill="#142D6E" /><path fill-rule="evenodd" clip-rule="evenodd" d="m195.898 177.404 9.1 39.2c.6 2.4 3 4 5.5 3.4l7.1-1.7c2.4-.6 4-3 3.4-5.5l-9.1-39.2c-.6-2.4-3-4-5.5-3.4l-7.1 1.7c-2.5.6-4 3.1-3.4 5.5Z" fill="#fff" /><path fill-rule="evenodd" clip-rule="evenodd" d="M199.104 171.198c-2.9.7-4.8 3.6-4.1 6.6l9.1 39.2c.4 1.4 1.2 2.6 2.5 3.4.9.5 1.9.8 2.9.8.4 0 .8-.1 1.3-.1l7.1-1.7c2.9-.7 4.8-3.6 4.1-6.6l-9.1-39.2c-.4-1.4-1.2-2.6-2.5-3.4-1.3-.8-2.8-1-4.2-.7l-7.1 1.7Zm8.392-.098c-.3 0-.5 0-.8.1l-7.1 1.7c-2 .5-3.2 2.4-2.7 4.4l9.1 39.2c.5 2 2.4 3.2 4.4 2.7l7.1-1.7c2-.5 3.2-2.4 2.7-4.4l-9.1-39.2c-.5-1.6-2-2.8-3.6-2.8Z" fill="#142D6E" /><path fill-rule="evenodd" clip-rule="evenodd" d="M198.001 180.101c0 .3.2.5.4.6.2.1.3.1.5.1h.2l10.6-2.5c.3 0 .5-.2.6-.4.1-.2.2-.5.1-.7l-7.6-32.9c-.1-.5-.6-.8-1.1-.7l-10.6 2.5c-.5.1-.8.6-.7 1.1l7.6 32.9Zm1.599-1.501 8.8-2-7.2-31-8.8 2 7.2 31Z" fill="#142D6E" /><path fill-rule="evenodd" clip-rule="evenodd" d="M134.599 106.895c6.7 28.7 35.3 46.5 64 39.8 28.7-6.7 46.5-35.3 39.8-63.9-6.7-28.7-35.3-46.5-64-39.9-28.7 6.7-46.5 35.3-39.8 64Zm92.906-21.5c-5.2-22.7-27.801-36.7-50.501-31.5-22.7 5.2-36.799 27.9-31.5 50.501 5.2 22.7 27.9 36.8 50.5 31.5 22.6-5.3 36.7-27.9 31.501-50.5Z" fill="#03D5B7" /><g opacity=".3"><path fill-rule="evenodd" clip-rule="evenodd" d="M176.904 53.801c-22.7 5.3-36.8 27.9-31.5 50.5 5.2 22.7 27.9 36.8 50.5 31.5 22.7-5.2 36.8-27.9 31.5-50.5-5.2-22.6-27.8-36.7-50.5-31.5Z" fill="#fff" opacity=".3" /><path fill-rule="evenodd" clip-rule="evenodd" d="M184.5 136.9c23.1 1.1 42.7-16.6 44-39.7l-44 39.7ZM188.9 52.8 144.4 93c-.2 3.8.1 7.7 1 11.4.8 3.3 1.9 6.4 3.4 9.4l60.3-54.4c-6.1-3.9-13-6.1-20.2-6.6ZM222.899 73.7l-61.1 55.2c2.2 1.7 4.6 3 7.1 4.2l57.4-51.8c-.9-2.6-2-5.1-3.4-7.6ZM212.499 61.8l-61.6 55.6c.2.5.5.9.8 1.3l62-55.9c-.3-.3-.7-.6-1.2-1ZM171.399 55.6l-22.4 20.2c-.6 1.1-1.1 2.2-1.6 3.4l27.5-24.8c-1.3.3-2.4.7-3.5 1.2Z" fill="#EBEBEB" opacity=".3" /></g><path fill-rule="evenodd" clip-rule="evenodd" d="M156.404 100.204c0 .53.05 1.06.13 1.51-.01-.07.01-.04.07.19v.2c.4 1.7-.6 3.4-2.4 3.7-1.6.5-3.4-.4-3.9-2.1-.2-1.4-.4-2.8-.5-4.2-.4-6.4.6-12.8 2.9-18.8 3.5-8.9 10.3-15.9 18.7-20.4 1.5-.9 3.5-.5 4.4 1 .9 1.5.5 3.5-1 4.4-1.3.7-2.6 1.5-3.8 2.3-.6.4-1.1.8-1.7 1.2l-.8.7c0 .04-.09.11-.16.17.22-.14-.14.13-.14.13-1.8 1.6-3.6 3.4-5.1 5.3l-.463.648c.018-.025-.004.02-.137.252-.3.4-.5.8-.8 1.2-.5.8-1.1 1.8-1.5 2.6-.4.8-.8 1.7-1.2 2.5l-.3.7c-.07.22-.07.26-.05.23-.11.28-.27.62-.35.97-.5 1.6-1 3.2-1.3 4.9-.2.8-.3 1.5-.4 2.3l-.1.6c-.009.008-.01.024-.01.035v.005c-.02.28-.09.6-.09.86-.2 2.3-.2 4.6 0 6.9Zm2.25-16.57c.02-.05.03-.09.05-.13.13-.34-.01.05-.05.13Zm9.64-13.523.012-.009-.002.002-.01.007Zm-5.761 6.212c.03-.048.089-.144.108-.17l-.037.051-.088.146.017-.027ZM155.502 109.102c-1.7.5-2.6 2.3-2.1 3.9s2.3 2.6 3.9 2.1 2.6-2.3 2.1-3.9c-.5-1.7-2.3-2.6-3.9-2.1Z" fill="#03D5B7" /><path fill-rule="evenodd" clip-rule="evenodd" d="M295.497 129.998c-4.5-16.2-16.4-23.7-19.3 1.2-2.1 17.9-5 48.4-6.4 47.9-.7-.2-24.5-4.7-32.3-8-6.4-3.3-25.4-12.9-31.6-13.4-6.4-.4-19.1 1.1-21.7 5.3-2.3 3.8.7 7.2.7 7.2-2 1-3.5 2.6-4.4 4.7-1.4 3.6 3.7 7.4 3.7 7.4-1.8 1.5-3.2 3.4-3.9 5.7-1 3.6 3.6 8.2 3.6 8.2-.9 2.3-1 4.8-.3 7.1 2.3 6.1 12.1 8.2 18.3 9.5 4.8 1 17.3.1 24.3-.5 21.3 4.3 53.1 10.9 62.8 6.1 4.2-2.1 10.8-8.4 13.6-17.6 4.4-14.4.7-42.7-7.1-70.8Z" fill="#fff" /><path fill-rule="evenodd" clip-rule="evenodd" d="m225.099 213.602 1.2-.1 1.6.3c16.2 3.2 36.8 7.4 50.4 7.4 4.8 0 8.7-.5 11.1-1.7 4.9-2.4 11.4-9.1 14.1-18.2 4.1-13.8 1.4-40.5-7.2-71.5-2.6-9.6-7.7-16-12.4-15.6-3.1.3-7.2 3.4-8.7 17-.4 3.9-.9 8.4-1.4 13-1.4 13.1-3.3 30.7-4.4 34-.4-.1-.9-.2-1.8-.4-6.4-1.3-23.4-4.7-29.7-7.4-7.6-3.9-25.7-13-31.9-13.4-6.6-.4-19.7 1.1-22.6 5.8-1.8 2.8-.9 5.7.1 7.4-1.7 1.1-3.1 2.7-3.9 4.6-1.3 3.3 1.6 6.4 3.1 7.8-1.5 1.5-2.7 3.3-3.3 5.4-1 3.4 2.2 7.3 3.4 8.6-.8 2.3-.9 4.8-.1 7.2 2.5 6.5 12.2 8.6 18.7 10l.4.1c4.7 1.1 15.9.2 23.3-.3Zm42.103-34.103c-6.4-1.3-23.5-4.8-30-7.5 0 0-.1 0-.1-.1-5.8-3-25.1-12.8-31.2-13.3-6.9-.5-18.7 1.4-20.9 4.9-1.9 3.1.6 6.1.6 6.1.2.2.3.5.2.8-.1.3-.2.5-.5.7-1.8.9-3.2 2.4-4 4.2-1.1 2.8 3.3 6.2 3.4 6.3.2.2.4.5.4.7 0 .3-.1.6-.4.8-1.7 1.3-2.9 3.1-3.6 5.2-.7 2.5 2.2 6 3.4 7.2.3.3.4.7.2 1-.9 2.1-1 4.3-.3 6.5 2.1 5.5 11.2 7.5 17.3 8.8l.4.1c4.4 1 15.9.1 22.8-.4H226.502l1.8.4c20.4 4.1 51.3 10.4 60.4 5.8 3.3-1.6 10.2-7.2 13.1-17.1 3.9-13.2 1.1-40.2-7.2-70.4-2.3-8.4-6.8-14.5-10.5-14.2-3.4.3-5.9 5.8-7 15.3-.4 3.9-.9 8.4-1.4 13-3.1 28.5-4 34.8-5.3 35.6-.3.2-.6.2-.9.1-.1 0-1.1-.2-2.3-.5Z" fill="#142D6E" /><path fill-rule="evenodd" clip-rule="evenodd" d="M273.699 137.5c10 .8 13.4-9.9 13.4-9.9l-8.7-32.6s10.9.3 10.5-7.9c0 0 .1-3.5-2.3-5.2 0 0 5.3-28.5-16.4-34.2-21.7-5.7-32 3.8-35.1 15.7-3.1 12-7.7 33.2 3.5 42.1 7.5 5.9 14 3.9 18 3.5l4.3 13.3s3.4 13.8 12.8 15.2Z" fill="#fff" /><path fill-rule="evenodd" clip-rule="evenodd" d="M259.999 122.598c.2.6 3.7 14.4 13.7 15.9h1.1c9.8 0 13.2-10.5 13.2-10.6v-.5l-8.4-31.4c2-.1 5.8-.7 8.2-3.1 1.5-1.5 2.1-3.5 2-5.7 0-.2.1-3.6-2.2-5.6.6-4.2 3.4-29.3-17.2-34.8-10.5-2.8-19.1-2.3-25.6 1.5-5.2 3.1-8.9 8.2-10.6 14.9-3.9 15.5-7.1 34.4 3.9 43.1 6.8 5.4 12.9 4.5 16.9 3.9.4 0 .7-.1 1-.1l4 12.5Zm-14.201-72.502c-4.8 2.8-8.1 7.6-9.7 13.7-2.2 8.8-8.2 32.1 3.2 41.2 6.1 4.9 11.5 4.1 15.4 3.5.7-.2 1.3-.3 1.9-.3.4 0 .8.3.9.7l4.3 13.3c.1.2 3.4 13.2 12.1 14.5 8.3.6 11.7-7.5 12.2-9l-8.6-32.3c-.1-.3 0-.6.2-.8.2-.2.5-.4.8-.4.1 0 5.4.1 8-2.6 1.1-1.1 1.6-2.5 1.5-4.3 0-.1 0-3.1-1.9-4.4-.3-.2-.5-.6-.4-.9.2-1.1 4.9-27.7-15.7-33.2-10-2.7-18.1-2.2-24.2 1.3Z" fill="#142D6E" /><path fill-rule="evenodd" clip-rule="evenodd" d="M215.8 91.5s10 10.3 19.8 11.3c-.22-.13-6.77-12.65-3.1-29.2l-16.7 17.9ZM272.7 79.695s-4.1 8.1-.7 10.1c3.2 1.9 6.6.5 10.8-8.6 0 0 1.9.4 3 1.4 2.9 2.8 6.7 8.9-6.7 12.5l2.9 14s21.1 6.4 33.1-3.4c0 0 2.2-74.4-45.6-68.8 0 0-27.7-10.6-39.2 21.7 0 0 16.6 10.1 30.1-2.7 0 0-3.2 22.3 12.3 23.8Z" fill="#142D6E" /><path fill-rule="evenodd" clip-rule="evenodd" d="M285.9 89.5c-2.76 0-5 2.24-5 5s2.24 5 5 5 5-2.24 5-5-2.24-5-5-5Z" fill="#FFC412" /><path fill-rule="evenodd" clip-rule="evenodd" d="M236.1 65.4c-3.92 0-7.1 3.18-7.1 7.1 0 3.92 3.18 7.1 7.1 7.1 3.92 0 7.1-3.18 7.1-7.1 0-3.92-3.18-7.1-7.1-7.1Z" fill="#fff" /><path fill-rule="evenodd" clip-rule="evenodd" d="M244.1 72.6c0-4.4-3.6-8-8-8s-8 3.6-8 8 3.6 8 8 8 8-3.6 8-8Zm-14.1-.1c0 3.3 2.8 6.1 6.1 6.1 3.4 0 6.1-2.8 6.1-6.1s-2.7-6.1-6.1-6.1c-3.4 0-6.1 2.8-6.1 6.1Z" fill="#142D6E" /><path fill-rule="evenodd" clip-rule="evenodd" d="M234.427 70.331a1.805 1.805 0 0 0-1.378 2.14 1.805 1.805 0 0 0 2.14 1.379 1.805 1.805 0 0 0 1.378-2.14 1.805 1.805 0 0 0-2.14-1.379ZM230.396 68.896c.3-.4.3-1-.1-1.3l-2.9-2.5c-.4-.3-1-.3-1.3.1-.3.4-.3 1 .1 1.3l2.9 2.5c.2.1.4.2.6.2.2 0 .5-.1.7-.3ZM232.603 67.403c.5-.2.7-.7.5-1.2l-1.9-4.7c-.2-.5-.7-.7-1.2-.5-.5.2-.7.7-.5 1.2l1.9 4.7c.2.4.5.6.9.6.2 0 .3 0 .3-.1Z" fill="#142D6E" /><path fill-rule="evenodd" clip-rule="evenodd" d="M241.998 77.7s-3.5.8-3.4 2.6c.2 1.8 1.7 2.6 4.2 2.3l1.3-11.5-2.1 6.6Z" fill="#fff" /><path fill-rule="evenodd" clip-rule="evenodd" d="m242.799 77.997 2.1-6.6c.2-.5-.1-1-.6-1.2-.5-.2-1 .1-1.2.6l-1.9 6.1c-1.1.4-3.7 1.4-3.5 3.5.1 1 .6 1.8 1.3 2.4.7.5 1.6.8 2.8.8h1.1c.5-.1.9-.6.8-1.1-.1-.5-.6-.9-1.1-.8-1.2.1-2.1 0-2.6-.4-.3-.3-.5-.6-.5-1.1-.1-.6 1.5-1.3 2.6-1.6.3 0 .6-.3.7-.6ZM259.896 66.403c.3-.4.1-1-.3-1.3-4.8-3-8.9-.7-9.1-.6-.4.3-.6.8-.3 1.3.3.4.8.6 1.3.3 0 0 3.3-1.8 7.1.6.1.2.3.2.5.2.3 0 .6-.1.8-.5ZM243.296 63.203c.3-.4.1-1-.3-1.3-4.8-3-8.9-.7-9.1-.6-.4.3-.6.8-.3 1.3s.8.7 1.3.4c.1 0 3.4-1.8 7.1.6.1.2.3.2.5.2.3 0 .6-.2.8-.6ZM263.096 75.901c.3-.4.3-1-.1-1.3-6-5.1-14.5-.3-14.9-.1-.4.3-.6.8-.3 1.3.3.4.8.6 1.3.3 0-.1 7.7-4.4 12.7-.1.2.1.4.2.6.2.2 0 .5-.1.7-.3Z" fill="#142D6E" /><path fill-rule="evenodd" clip-rule="evenodd" d="M259.6 81.004c.5-.1.8-.6.7-1.1-1.4-5.6-11.1-5.2-11.5-5.2-.5 0-.9.5-.9 1s.5.9 1 .9c.1 0 8.6-.3 9.6 3.8.1.4.5.7.9.7.1 0 .2-.1.2-.1ZM243.195 88.898c1.2.4 2.1 1.7 2.7 3.8.1.4.5.7.9.7 0 0 .1 0 .3.1.5-.2.8-.7.7-1.2-.8-2.7-2.1-4.5-3.9-5.1-2.7-1-5.4.8-5.5.9-.4.3-.5.9-.2 1.3s.9.5 1.3.2c0 0 2-1.3 3.7-.7Z" fill="#142D6E" /><path fill-rule="evenodd" clip-rule="evenodd" d="m273.2 38 .8-2-4.1-1.1-2.2 1.5 5.5 1.6Z" fill="#E2A40A" /><path fill-rule="evenodd" clip-rule="evenodd" d="M283.6 80.901s14.6-13.5 2.2-44.2c.1 0-5.6-7.8-15.9-1.8 0 0 24 17.8 13.7 46Z" fill="#FFC412" /><path fill-rule="evenodd" clip-rule="evenodd" d="m268.198 167.105 42.9 11.3s2.1-24.4-5-41.5c-4.8-11.5-12.2-20.6-20.3-22.9-4.3-1.2-9 .8-10.9 4.9-7 14.7-6.7 48.2-6.7 48.2Z" fill="#fff" /><path fill-rule="evenodd" clip-rule="evenodd" d="M311.899 178.502c.1-1 2.1-24.8-5-41.9-5.1-12.4-13-21.2-20.9-23.5-4.8-1.4-9.8.9-12 5.4-7 14.7-6.8 47.2-6.8 48.6 0 .4.3.8.7.9l43 11.3h.2c.2 0 .4 0 .4-.1.2-.2.4-.4.4-.7Zm-1.7-1.402c.3-5 1.1-25.3-5-39.9-5-11.9-12.3-20.2-19.7-22.4-3.9-1.1-8 .7-9.8 4.4-6.2 13.2-6.6 42.2-6.6 47.1l41.1 10.8ZM214 175.299c.4-.3.4-.9 0-1.3-6.3-6.6-28.2-4.6-29.1-4.5-.6 0-.9.5-.9 1 0 .6.5 1 1 .9.2 0 21.9-2 27.6 3.9.2.2.5.3.7.3.2 0 .4-.1.7-.3ZM213.604 187.2c.3-.4.1-1-.3-1.3-9.6-6.2-28.4-4-29.2-3.9-.5.1-.9.6-.8 1.1.1.5.6.9 1.1.8.2 0 18.9-2.3 27.9 3.6.1.2.3.2.5.2.3 0 .6-.2.8-.5ZM218.999 200.703c.3-.4.2-1-.2-1.3-8.6-6-33.9-4.4-35-4.3-.5 0-.9.5-.9 1s.5.9 1 .9c.2 0 25.7-1.7 33.8 4 .1.1.3.2.5.2.3 0 .6-.2.8-.5Z" fill="#142D6E" /><path fill-rule="evenodd" clip-rule="evenodd" d="M234.095 223.8c-6.5-2.3-13.7 7.7-20.1 5-3.7-2.8-7.4-5.5-10.3-5.9-2.7-.5-5.4.8-6.6 3.2 0 0-2.4-5.4-7.4-5.4-2.5 0-4.7 4.1-4.7 4.1s-2.2-4.3-6.5-4c-3.5.2-5.2 4.3-5.2 4.3s-4-3.1-7.5-1.7c-7.1 2.8-8.2 32.9 2.6 37.9 5.1 2.4 5-5 5-5s2.7 10.5 8.9 10.9c6.2.4 5.5-9.1 5.5-9.1s2.7 10.2 9.2 10c6.7-.2 4.4-9.7 4.4-9.7s4.3 6.9 9.2 5.6c8.1-2.2-.6-18.4 1.2-25h10.2c12.7-1.8 20.5-12.2 12.1-15.2Z" fill="#fff" /><path fill-rule="evenodd" clip-rule="evenodd" d="M165.602 222.6c-4.1 1.6-5.8 9.8-6 16.4-.3 8.7 1.8 20 8.6 23.2 1.5.7 2.9.7 4 0 .8-.5 1.3-1.3 1.6-2.2 1.4 3.4 4.1 7.9 8.5 8.2 1.6.1 3-.4 4.1-1.5 1.1-1.1 1.7-2.8 2-4.3 1.5 3 4.2 6.6 8.3 6.6.1 0 .2 0 .3.2 1.9-.1 3.3-.8 4.3-2.1 1.2-1.5 1.4-3.5 1.4-5.3 1.9 2 4.8 4.2 8.1 3.3 5.9-1.6 4.3-9.1 2.9-15.7-.7-3.4-1.4-6.9-1.1-9.2h9.4c.1 0 .2-.1.3-.1 9.2-1.2 15.8-6.9 16.3-11.4.3-2.5-1.2-4.5-4.1-5.5-3.6-1.3-7.3.7-10.8 2.6-3.2 1.8-6.3 3.5-9.1 2.4-3.9-3-7.5-5.5-10.5-6-2.5-.5-5.1.4-6.7 2.3-1.1-1.8-3.6-4.6-7.4-4.6-2.1 0-3.8 1.9-4.8 3.3-1.1-1.4-3.3-3.4-6.6-3.2-2.9.1-4.7 2.4-5.5 3.8-1.5-.9-4.6-2.4-7.5-1.2Zm8.802 33.6c0 .1 2.6 9.9 8 10.2 1.1.1 2-.2 2.7-.9 1.8-1.8 1.9-5.8 1.8-7.2 0-.5.3-.9.8-1 0-.2 0-.2.1-.2.4 0 .8.3.9.7 0 .1 2.6 9.5 8.2 9.3 1.3 0 2.2-.5 2.9-1.3 1.8-2.4.6-7.1.6-7.2-.1-.5.1-.9.5-1.1.4-.2.9 0 1.2.4 0 .1 4 6.3 8.1 5.1 3.9-1 3.1-6.2 1.5-13.5-.9-4.2-1.7-8.1-1-10.8.1-.4.5-.7.9-.7h10.1c8.3-1.1 14.4-6 14.8-9.8.2-1.6-.8-2.8-2.9-3.5-2.8-1-5.9.7-9.2 2.5-3.6 2-7.3 4-10.9 2.5-.1 0-.1-.1-.2-.1-3.7-2.8-7.2-5.3-9.8-5.7-2.3-.5-4.6.6-5.6 2.7-.2.3-.5.5-.9.5s-.7-.2-.8-.6c0 0-2.2-4.8-6.5-4.8-1.6 0-3.4 2.7-3.9 3.6-.2.3-.5.5-.8.5-.4 0-.7-.2-.8-.5-.1-.1-1.9-3.7-5.6-3.5-2.9.2-4.4 3.7-4.4 3.7-.1.3-.3.5-.6.6-.3.1-.6 0-.8-.2 0 0-3.6-2.8-6.5-1.6-2.6 1-4.6 7.2-4.8 14.7-.3 8.8 2 18.9 7.5 21.5.9.4 1.7.5 2.2.2 1.2-.8 1.4-3.4 1.4-4.3 0-.5.3-.9.8-.9.5-.1.9.2 1 .7Z" fill="#142D6E" /><path fill-rule="evenodd" clip-rule="evenodd" d="M174.501 256.9c-.9-8.7-.4-31.8-.4-32 0-.6-.4-1-.9-1-.6 0-1 .4-1 .9 0 .9-.5 23.4.4 32.2 0 .5.4.9.9.9.6-.1 1-.6 1-1ZM189.004 259.7l-3.6-35.4c0-.5-.5-.8-1-.8s-.9.5-.8 1l3.6 35.4c0 .4.4.8.9.8.6 0 1-.5.9-1ZM201.7 259.4c.5-.3.7-.8.5-1.3-2.6-5.5-4.2-31.7-4.2-32 0-.5-.5-.9-1-.9s-.9.5-.9 1c0 1 1.6 26.8 4.3 32.6.2.3.5.5.9.5.2 0 .3 0 .4.1ZM266.401 182.202c0-.5-.3-.9-.8-1-10.2-1.6-22.7-8.4-22.8-8.5-.4-.2-1 0-1.2.4-.2.4 0 1 .4 1.2.5.3 12.9 7 23.4 8.7h.1c.4 0 .8-.3.9-.8Z" fill="#142D6E" /><path fill-rule="evenodd" clip-rule="evenodd" d="m266.4 189.3.9-13.7c0-.5-.4-1-.9-1s-1 .4-1 .9l-.9 13.7c0 .5.3 1 .9 1 .5 0 .9-.3 1-.9Z" fill="#142D6E" /><path fill-rule="evenodd" clip-rule="evenodd" d="m335.303 169.403 23.7-10.7c.5-.2.7-.8.5-1.3-.2-.5-.8-.7-1.3-.5l-23.7 10.7c-.5.2-.7.8-.5 1.3.2.4.5.6.9.6.1 0 .2 0 .4-.1Z" fill="#FFC412" /></g></svg>
